<svg width="26" height="21" viewBox="0 0 26 21" version="1.1" xmlns="http://www.w3.org/2000/svg" xmlns:xlink="http://www.w3.org/1999/xlink">
<title>aero</title>
<desc>Created using Figma</desc>
<g id="Canvas" transform="translate(-824 -505)">
<g id="aero">
<g id="Rectangle-169">
<use xlink:href="#path0_fill" transform="translate(824 505.119)" fill="#FFFFFF"/>
</g>
</g>
</g>
<defs>
<path id="path0_fill" fill-rule="evenodd" d="M 11.1586 8.94891L 5.22021 8.94891L 1.49152 5.96597L 0 6.7117L 1.74078 9.61298C 1.58307 9.84973 1.49152 10.1343 1.49152 10.4404C 1.49152 10.654 1.53577 10.8564 1.61566 11.0393L 0 14.1692L 1.49152 14.9149L 5.22021 11.9319L 11.1862 11.9319L 7.45746 20.8809L 10.4404 20.8809L 16.4064 11.9319L 23.8625 11.9319C 24.6922 11.9319 25.3553 11.2642 25.3553 10.4404C 25.3553 9.61096 24.687 8.94891 23.8625 8.94891L 16.4064 8.94891L 10.4404 0L 7.45746 0C 7.45746 0 9.84949 5.87305 11.1862 8.94891L 11.1586 8.94891Z"/>
</defs>
</svg>
