<svg width="18" height="18" viewBox="0 0 18 18" version="1.1" xmlns="http://www.w3.org/2000/svg" xmlns:xlink="http://www.w3.org/1999/xlink">
<title>noUiHandle noUiHandleLower</title>
<desc>Created using Figma</desc>
<g id="Canvas" transform="translate(-4310 -603)">
<g id="noUiHandle noUiHandleLower">
<use xlink:href="#path0_fill" transform="translate(4311 604)" fill="#FFFFFF"/>
<use xlink:href="#path1_stroke" transform="translate(4311 604)" fill="#D6D9DA"/>
</g>
</g>
<defs>
<path id="path0_fill" fill-rule="evenodd" d="M 0 8C 0 3.58172 3.58172 0 8 0C 12.4183 0 16 3.58172 16 8C 16 12.4183 12.4183 16 8 16C 3.58172 16 0 12.4183 0 8Z"/>
<path id="path1_stroke" d="M 8 15.5C 3.85786 15.5 0.5 12.1421 0.5 8L -0.5 8C -0.5 12.6944 3.30558 16.5 8 16.5L 8 15.5ZM 15.5 8C 15.5 12.1421 12.1421 15.5 8 15.5L 8 16.5C 12.6944 16.5 16.5 12.6944 16.5 8L 15.5 8ZM 8 0.5C 12.1421 0.5 15.5 3.85786 15.5 8L 16.5 8C 16.5 3.30558 12.6944 -0.5 8 -0.5L 8 0.5ZM 8 -0.5C 3.30558 -0.5 -0.5 3.30558 -0.5 8L 0.5 8C 0.5 3.85786 3.85786 0.5 8 0.5L 8 -0.5Z"/>
</defs>
</svg>
